Coordinates
version=1
nRows=16
nColumns=40
inDegrees=yes

Units are S.I. units (second, meters, Newtons, ...)
Angles are in degrees.

endheader
time	pelvis_tilt	pelvis_list	pelvis_rotation	pelvis_tx	pelvis_ty	pelvis_tz	hip_flexion_r	hip_adduction_r	hip_rotation_r	knee_angle_r	knee_angle_r_beta	ankle_angle_r	subtalar_angle_r	mtp_angle_r	hip_flexion_l	hip_adduction_l	hip_rotation_l	knee_angle_l	knee_angle_l_beta	ankle_angle_l	subtalar_angle_l	mtp_angle_l	lumbar_extension	lumbar_bending	lumbar_rotation	arm_flex_r	arm_add_r	arm_rot_r	elbow_flex_r	pro_sup_r	wrist_flex_r	wrist_dev_r	arm_flex_l	arm_add_l	arm_rot_l	elbow_flex_l	pro_sup_l	wrist_flex_l	wrist_dev_l
      1.63000000	     -1.92595885	     -1.66135040	      9.48480938	      0.07287967	      0.88439975	     -1.02590795	     28.41526715	     -4.49614246	    -20.77965839	    -18.52713076	     -0.32335943	      6.93808867	     -2.19735291	      9.21532453	      3.91742234	      3.05132848	     10.03930075	    -27.64482310	     -0.48249318	     14.76729789	     -2.15436027	     -5.85718563	     -4.35057188	     -0.95191175	    -11.08307675	     -2.69641118	     -5.70528112	    -14.99255594	     23.69870871	     89.95437384	      0.00000000	      0.00000000	     10.96738311	     11.78382843	     12.43705423	     44.42824383	     89.95437384	      0.00000000	      0.00000000
      1.64000000	     -2.06430379	     -1.53183210	      9.63135991	      0.08010829	      0.88343592	     -1.02548405	     28.56868570	     -4.67826605	    -20.50670448	    -18.79978302	     -0.32811811	      6.79188885	     -2.19255885	      9.02768436	      3.69317613	      3.03344367	      9.90119015	    -27.93233856	     -0.48751128	     14.53141260	     -2.09432163	     -5.76689678	     -4.10242268	     -1.01566982	    -11.10986771	     -2.93665855	     -5.73583690	    -14.95371288	     23.84674698	     89.95437384	      0.00000000	      0.00000000	     10.92351753	     11.68877670	     12.37749565	     44.65031621	     89.95437384	      0.00000000	      0.00000000
      1.65000000	     -1.84919364	     -1.40596812	     10.00672866	      0.08775946	      0.88314637	     -1.02556122	     28.11636861	     -4.89933293	    -20.75272166	    -18.98774464	     -0.33139866	      7.10619957	     -2.91391991	      8.84616255	      2.87919181	      3.02922461	      9.51971410	    -27.82043061	     -0.48555811	     15.03670473	     -2.31551478	     -5.95800292	     -4.20573896	     -0.98343908	    -11.54702813	     -2.72861323	     -5.71924810	    -15.26995765	     23.38821625	     89.95437384	      0.00000000	      0.00000000	     10.73462597	     11.70120499	     12.27106130	     44.89833832	     89.95437384	      0.00000000	      0.00000000
      1.66000000	     -2.01759650	     -1.28218959	     10.14083306	      0.09520929	      0.88217097	     -1.02503372	     28.16016486	     -5.03088821	    -20.44573040	    -19.36619216	     -0.33800382	      6.90170707	     -2.91276290	      8.66552481	      2.67227316	      3.02302890	      9.38347504	    -28.09597164	     -0.49036721	     14.75053074	     -2.23261288	     -5.85783699	     -3.91274646	     -1.03818069	    -11.57043500	     -2.98849004	     -5.73800884	    -15.22628124	     23.55284975	     89.95437384	      0.00000000	      0.00000000	     10.61977406	     11.60079082	     12.21731109	     45.05850065	     89.95437384	      0.00000000	      0.00000000
      1.67000000	     -1.50560698	     -1.16905678	     10.37287319	      0.10346069	      0.88246138	     -1.02486777	     27.25040166	     -4.94945742	    -20.08996434	    -19.55798355	     -0.34135121	      6.39403707	     -4.87904507	      8.34233073	      1.28807203	      3.06348242	      8.96893761	    -27.55483669	     -0.48092263	     14.69327740	     -2.13589681	     -6.36660531	     -4.29427716	     -0.90631924	    -11.85627721	     -2.79877036	     -5.70764995	    -15.70412559	     23.17654926	     89.95437384	      0.00000000	      0.00000000	     10.41722849	     11.55606639	     12.22444026	     45.15461412	     89.95437384	      0.00000000	      0.00000000
      1.68000000	     -1.70941332	     -1.04136965	     10.48049981	      0.11120876	      0.88138770	     -1.02409408	     27.25058215	     -5.02652070	    -19.80969168	    -20.01097743	     -0.34925744	      6.15894950	     -4.80681422	      8.17374330	      1.11348780	      3.07392418	      8.83877433	    -27.86677152	     -0.48636691	     14.43951504	     -2.06148223	     -6.26034064	     -3.93212516	     -0.99137280	    -11.83874962	     -3.07172486	     -5.72597062	    -15.64334394	     23.34547681	     89.95437384	      0.00000000	      0.00000000	     10.24251836	     11.46617892	     12.17218284	     45.27745762	     89.95437384	      0.00000000	      0.00000000
      1.69000000	     -1.52198337	     -1.11722300	     10.60507520	      0.11941102	      0.88104202	     -1.02336646	     26.86880471	     -4.81540883	    -20.03399544	    -20.58743278	     -0.35931849	      4.82321747	     -6.90330615	      8.05330167	      0.30972402	      3.39123101	      8.69917104	    -27.73534699	     -0.48407312	     14.66484300	     -2.14991051	     -7.03942470	     -3.90925183	     -0.73850066	    -11.97841578	     -2.94830963	     -5.74283575	    -15.89541639	     22.94383223	     89.95437384	      0.00000000	      0.00000000	     10.02260394	     11.40681851	     12.15304938	     45.23916509	     89.95437384	      0.00000000	      0.00000000
      1.70000000	     -1.70993689	     -1.00999896	     10.61747072	      0.12720249	      0.88020747	     -1.02233156	     26.90909340	     -4.83369321	    -19.79673586	    -21.07316096	     -0.36779604	      4.51057132	     -6.73584292	      7.90233390	      0.13160775	      3.41523580	      8.49376593	    -28.06705751	     -0.48986256	     14.34876215	     -2.06901541	     -6.90844167	     -3.56387242	     -0.78593613	    -11.91898685	     -3.16593631	     -5.76376935	    -15.82474160	     23.14957590	     89.95437384	      0.00000000	      0.00000000	      9.77705072	     11.34518507	     12.11987070	     45.30651978	     89.95437384	      0.00000000	      0.00000000
      1.71000000	     -1.56095556	     -1.30666184	     10.68423473	      0.13523867	      0.88012972	     -1.02139487	     26.76208717	     -4.56911281	    -20.56055035	    -21.80520943	     -0.38057270	      3.13943644	     -7.51187866	      8.01319808	     -0.50915505	      3.89602084	      8.06096706	    -28.06537824	     -0.48983326	     14.51132372	     -1.81678140	     -7.06424255	     -3.48166021	     -0.28246196	    -12.02806707	     -2.93335299	     -5.85922354	    -15.82777126	     22.62747749	     89.95437384	      0.00000000	      0.00000000	      9.58113502	     11.18067829	     12.28766603	     45.05695666	     89.95437384	      0.00000000	      0.00000000
      1.72000000	     -1.66560805	     -1.47353800	     10.60886959	      0.14315546	      0.87979516	     -1.02004195	     26.86446614	     -4.31059445	    -20.37159544	    -22.49076120	     -0.39253783	      2.57112732	     -7.45697927	      7.89516607	     -0.76400016	      4.22885306	      7.79739008	    -28.28184499	     -0.49361131	     14.28658097	     -1.57992724	     -6.98666065	     -3.17753361	     -0.00530526	    -11.93233222	     -2.92732459	     -5.91699420	    -15.76464297	     22.46848179	     89.95437384	      0.00000000	      0.00000000	      9.31789254	     11.08358406	     12.29547298	     44.90374380	     89.95437384	      0.00000000	      0.00000000
      1.73000000	     -1.74240535	     -1.66188713	     10.48182640	      0.15108985	      0.87967158	     -1.01856269	     26.92382934	     -4.00501179	    -20.10018177	    -23.17598591	     -0.40449726	      1.87591733	     -7.28539177	      7.77407439	     -0.96215504	      4.54031035	      7.49890056	    -28.69233501	     -0.50077572	     13.98440962	     -1.24487793	     -6.87580897	     -2.92261423	      0.29734709	    -11.80614652	     -2.88154923	     -5.97834791	    -15.68741433	     22.30939195	     89.95437384	      0.00000000	      0.00000000	      9.00319152	     10.97263402	     12.37833131	     44.77727655	     89.95437384	      0.00000000	      0.00000000
      1.74000000	     -1.76854048	     -1.95719766	     10.34793072	      0.15924779	      0.87977216	     -1.01697769	     26.80797576	     -3.54362291	    -19.91874140	    -23.64747977	     -0.41272638	      1.10899612	     -7.20625287	      7.68442228	     -1.15119152	      5.01825759	      7.25858460	    -29.22659851	     -0.51010037	     13.74638963	     -0.59559137	     -6.79521906	     -2.65883534	      0.70510658	    -11.68447497	     -2.74255091	     -6.04260743	    -15.64970880	     21.91464220	     89.95437384	      0.00000000	      0.00000000	      8.65782412	     10.80624482	     12.57259854	     44.59472634	     89.95437384	      0.00000000	      0.00000000
      1.75000000	     -1.93985162	     -1.84703051	     10.21796560	      0.16749739	      0.87982783	     -1.01556119	     26.72727453	     -3.51636453	    -19.55759554	    -24.08803643	     -0.42041555	      0.89354155	     -6.95794707	      7.51599810	     -1.24655967	      4.97855439	      6.94361141	    -29.72359749	     -0.51877464	     13.30937086	     -0.50632681	     -6.64025090	     -2.32107364	      0.62887603	    -11.55080485	     -2.98615159	     -6.04938622	    -15.58544747	     22.19203515	     89.95437384	      0.00000000	      0.00000000	      8.15995764	     10.77803716	     12.57081337	     44.57962352	     89.95437384	      0.00000000	      0.00000000
      1.76000000	     -1.82998185	     -2.44886354	     10.19083200	      0.17581574	      0.88040131	     -1.01410560	     26.25737486	     -2.66848398	    -19.48769192	    -24.15140331	     -0.42152151	      0.15622006	     -7.62178827	      7.54262749	     -1.33434866	      5.73571179	      6.37455996	    -30.57441250	     -0.53362417	     12.81214954	      1.24226631	     -6.50664856	     -2.13615661	      1.41916958	    -11.68394911	     -2.58790195	     -6.17052347	    -15.58646374	     21.46624826	     89.95437384	      0.00000000	      0.00000000	      7.66650678	     10.56007120	     12.98559613	     44.33578639	     89.95437384	      0.00000000	      0.00000000
      1.77000000	     -1.97218457	     -2.55072609	     10.01240545	      0.18387588	      0.88071328	     -1.01217814	     26.10162552	     -2.18321467	    -18.74501616	    -24.33938112	     -0.42480234	     -0.33267986	     -9.22724468	      7.70279688	     -1.28672578	      5.76582128	      5.37371629	    -31.27318247	     -0.54582000	     12.40916766	      2.86916069	     -6.63938924	     -1.82064255	      1.52082703	    -11.59851206	     -2.58992840	     -6.17657770	    -15.37230775	     21.49600047	     89.95437384	      0.00000000	      0.00000000	      7.14130674	     10.55518018	     13.09569144	     44.19882790	     89.95437384	      0.00000000	      0.00000000
      1.78000000	     -2.00467393	     -2.61666993	      9.81245741	      0.19210386	      0.88118044	     -1.01031943	     25.94148151	     -1.91042158	    -18.43450160	    -24.96633699	     -0.43574478	     -0.13025514	     -9.02467843	      7.48568813	     -1.26529715	      5.94926735	      4.95652245	    -32.13981154	     -0.56094553	     11.57762770	      3.22205662	     -6.44242217	     -1.62290168	      1.62069994	    -11.38637686	     -2.62734216	     -6.19612590	    -15.27938293	     21.47259765	     89.95437384	      0.00000000	      0.00000000	      6.65598980	     10.54034729	     13.04366373	     44.04866140	     89.95437384	      0.00000000	      0.00000000
